<?xml version="1.0" encoding="utf-8"?>
<!-- Generator: Adobe Illustrator 16.0.0, SVG Export Plug-In . SVG Version: 6.00 Build 0)  -->
<!DOCTYPE svg PUBLIC "-//W3C//DTD SVG 1.1//EN" "http://www.w3.org/Graphics/SVG/1.1/DTD/svg11.dtd">
<svg version="1.1" id="Layer_1" xmlns="http://www.w3.org/2000/svg" xmlns:xlink="http://www.w3.org/1999/xlink" x="0px" y="0px"
	 width="28.35px" height="28.35px" viewBox="0 0 28.35 28.35" enable-background="new 0 0 28.35 28.35" xml:space="preserve">
<path id="path28" inkscape:connector-curvature="0" d="M7.532,25.806V10.109H2.314v15.697H7.532z M4.921,7.965
	c1.82,0,2.953-1.207,2.953-2.71c-0.032-1.54-1.133-2.71-2.917-2.71c-1.784,0-2.951,1.17-2.951,2.71c0,1.503,1.132,2.71,2.883,2.71
	H4.921L4.921,7.965z"/>
<path id="path30" inkscape:connector-curvature="0" d="M10.419,25.806h5.213v-8.764c0-0.469,0.036-0.941,0.172-1.273
	c0.379-0.937,1.241-1.91,2.678-1.91c1.891,0,2.646,1.442,2.646,3.549v8.398h5.216v-9.003c0-4.821-2.571-7.063-6.004-7.063
	c-2.817,0-4.05,1.577-4.74,2.644h0.033v-2.275h-5.213C10.487,11.58,10.419,25.806,10.419,25.806L10.419,25.806z"/>
</svg>
