<?xml version="1.0" encoding="utf-8"?>
<!-- Generator: Adobe Illustrator 16.0.0, SVG Export Plug-In . SVG Version: 6.00 Build 0)  -->
<!DOCTYPE svg PUBLIC "-//W3C//DTD SVG 1.1//EN" "http://www.w3.org/Graphics/SVG/1.1/DTD/svg11.dtd">
<svg version="1.1" id="Layer_1" xmlns="http://www.w3.org/2000/svg" xmlns:xlink="http://www.w3.org/1999/xlink" x="0px" y="0px"
	 width="28.35px" height="28.35px" viewBox="0 0 28.35 28.35" enable-background="new 0 0 28.35 28.35" xml:space="preserve">
<g>
	<path d="M17.934,18.582H8.952l-1.574,3.661c-0.388,0.901-0.582,1.573-0.582,2.018c0,0.354,0.169,0.666,0.505,0.933
		c0.336,0.27,1.063,0.444,2.181,0.522v0.633H2.177v-0.633c0.97-0.171,1.597-0.394,1.882-0.666c0.582-0.548,1.226-1.66,1.933-3.338
		l8.16-19.093h0.6l8.075,19.299c0.649,1.55,1.241,2.559,1.771,3.02c0.53,0.461,1.269,0.723,2.216,0.778v0.633h-9.152v-0.633
		c0.923-0.045,1.547-0.199,1.873-0.461c0.324-0.264,0.487-0.581,0.487-0.958c0-0.503-0.228-1.295-0.685-2.379L17.934,18.582z
		 M17.454,17.315L13.52,7.94l-4.038,9.375H17.454z"/>
</g>
</svg>
