<?xml version="1.0" encoding="utf-8"?>
<!-- Generator: Adobe Illustrator 16.0.0, SVG Export Plug-In . SVG Version: 6.00 Build 0)  -->
<!DOCTYPE svg PUBLIC "-//W3C//DTD SVG 1.1//EN" "http://www.w3.org/Graphics/SVG/1.1/DTD/svg11.dtd">
<svg version="1.1" id="Isolationsmodus" xmlns="http://www.w3.org/2000/svg" xmlns:xlink="http://www.w3.org/1999/xlink" x="0px"
	 y="0px" width="78.141px" height="60.191px" viewBox="0 0 78.141 60.191" enable-background="new 0 0 78.141 60.191"
	 xml:space="preserve">
<path fill="#0D85C8" d="M69.304,32.394c0.084-0.158,0.142-0.306,0.178-0.454l1.049,2.073l7.61-3.853L63.721,1.676l-7.61,3.852
	l1.422,2.81c-0.586,0.025-1.186,0.011-1.75-0.112c-2.799-0.612-5.582-1.301-8.378-1.925c-2.223-0.496-4.495-1.084-6.748-0.56
	c-2.252,0.523-4.419,1.407-6.629,2.115c-0.454,0.146-0.931,0.3-1.397,0.303c-3.376,0.023-6.752,0.012-10.127,0.024l1.673-3.648
	L14.291,0L0,31.153l9.887,4.536l1.466-3.197c0.342,0.42,0.679,0.842,1.017,1.266c0.891,1.113,1.776,2.232,2.66,3.345
	c-1.047,1.444-2.06,2.785-3.01,4.171c-0.979,1.429-1.041,2.95-0.159,4.442c0.865,1.463,2.212,2.18,3.894,1.971
	c0.901-0.111,1.763-0.531,2.663-0.818c-0.698,1.942-0.329,3.744,1.469,5.01c1.772,1.25,3.574,0.951,5.391-0.375
	c-0.836,2.229-0.548,4.105,1.488,5.259c2.117,1.199,3.947,0.489,5.461-1.433c0,0.24,0.014,0.348-0.002,0.451
	c-0.303,1.95,0.456,3.455,2.086,4.123c1.633,0.668,3.281,0.155,4.432-1.381c0.306-0.406,0.607-0.814,0.9-1.208
	c3.753,1.704,5.639,1.181,8.233-2.237c3.703,2.887,8.547,0.932,9.199-3.623c1.707,0.256,3.274-0.089,4.614-1.228
	c1.372-1.167,1.901-2.71,1.857-4.464c0.189-0.036,0.292-0.066,0.398-0.073c4.867-0.331,7.449-5.884,4.196-9.819
	c-0.152-0.186-0.184-0.604-0.087-0.836C68.425,34.137,68.845,33.253,69.304,32.394 M8.731,32.576l-5.618-2.578L15.447,3.113
	l5.618,2.576L8.731,32.576z M65.615,42.034c-1.095,0.929-2.555,1.032-3.759,0.18c-3.649-2.585-7.279-5.197-10.917-7.798
	c-1.433-1.024-2.857-2.062-4.304-3.067c-0.863-0.599-1.744-0.498-2.245,0.196c-0.496,0.684-0.28,1.523,0.558,2.177
	c0.043,0.034,0.087,0.065,0.131,0.097c1.785,1.279,3.567,2.56,5.352,3.837c2.954,2.114,5.909,4.227,8.864,6.338
	c0.659,0.471,1.208,1.02,1.282,1.881c0.09,1.034-0.247,1.894-1.183,2.4c-0.966,0.524-1.913,0.422-2.821-0.23
	c-4.183-3.004-8.374-5.998-12.565-8.989c-0.33-0.235-0.672-0.467-1.04-0.626c-0.687-0.297-1.301-0.108-1.717,0.496
	c-0.397,0.577-0.325,1.189,0.138,1.718c0.213,0.243,0.469,0.453,0.731,0.641c3.501,2.514,7,5.029,10.514,7.524
	c0.739,0.525,1.337,1.123,1.418,2.066c0.084,0.974-0.306,1.758-1.139,2.27c-0.963,0.593-1.925,0.472-2.82-0.159
	c-1.684-1.187-3.349-2.399-5.025-3.598c-1.765-1.259-3.519-2.535-5.306-3.761c-0.789-0.543-1.637-0.398-2.104,0.244
	c-0.463,0.637-0.301,1.459,0.418,2.084c0.163,0.142,0.341,0.267,0.518,0.394c1.959,1.408,3.922,2.809,5.878,4.221
	c0.889,0.641,0.935,1.291,0.117,2.053c-0.674,0.627-1.531,1.029-2.374,0.572c-0.898-0.486-1.663-1.223-2.474-1.864
	c-0.58-0.46-1.106-0.993-1.715-1.408c-0.881-0.603-1.824-1.114-2.716-1.702c-0.165-0.11-0.264-0.395-0.3-0.615
	c-0.359-2.206-2.127-3.564-4.352-3.324c-0.726,0.079-1.564-0.628-1.737-1.321c-0.196-0.774-0.385-1.602-0.811-2.254
	c-0.833-1.277-2.124-1.77-3.653-1.69c-0.989,0.053-1.522-0.574-1.372-1.53c0.46-2.923-1.944-5.29-4.9-4.749
	c-0.607,0.111-0.874-0.072-1.2-0.482c-1.343-1.698-2.703-3.385-4.094-5.118l7.855-17.125h6.607
	c-0.156,0.243-0.221,0.353-0.295,0.458c-1.058,1.488-1.71,3.125-1.857,4.957c-0.181,2.271-0.417,4.526-1.42,6.631
	c-0.621,1.304-0.248,2.353,1.022,3.081c1.253,0.719,2.636,0.956,4.006,0.569c3.731-1.055,6.135-3.457,6.908-7.31
	c0.352-1.754,1.424-2.877,3.025-3.257c1.705-0.406,3.494-0.435,4.888,1.041c0.557,0.59,1.141,1.161,1.753,1.694
	c6.701,5.845,13.413,11.678,20.108,17.53c0.376,0.329,0.706,0.767,0.916,1.219C66.932,39.758,66.553,41.236,65.615,42.034"/>
</svg>
