<?xml version="1.0" encoding="utf-8"?>
<!-- Generator: Adobe Illustrator 16.0.0, SVG Export Plug-In . SVG Version: 6.00 Build 0)  -->
<!DOCTYPE svg PUBLIC "-//W3C//DTD SVG 1.1//EN" "http://www.w3.org/Graphics/SVG/1.1/DTD/svg11.dtd">
<svg version="1.1" id="Layer_1" xmlns="http://www.w3.org/2000/svg" xmlns:xlink="http://www.w3.org/1999/xlink" x="0px" y="0px"
	 width="28.35px" height="28.35px" viewBox="0 0 28.35 28.35" enable-background="new 0 0 28.35 28.35" xml:space="preserve">
<path d="M26.372,18.265c0.941-1.282,0.941-1.584,0.941-1.72c0-1.594-1.527-2.15-1.595-2.173l-0.088-0.028l-0.09-0.001
	c-0.007,0-0.013,0-0.021,0c0.088-0.114,0.249-0.288,0.536-0.533c0.295-0.251,0.387-0.628,0.247-1.008
	c-0.282-0.767-1.463-1.439-2.525-1.439c-1.262,0-2.254,0.168-3.402,0.36c-0.551,0.093-1.118,0.188-1.787,0.279
	c-0.293,0.04-0.681,0.039-0.852-0.195c-0.23-0.313-0.159-1.008,0.178-1.731l0.174-0.369c0.776-1.635,1.65-3.488,0.68-5.108
	c-0.45-0.75-1.511-1.427-2.373-1.237c-0.362,0.08-0.989,0.378-1.104,1.472c-0.304,2.853-1.739,4.003-3.126,5.115
	c-0.587,0.471-1.141,0.915-1.599,1.472l-0.046,0.057l-0.029,0.066c-0.015,0.034-1.523,3.378-4.028,3.378v-3.015H1.583v13.945h4.878
	v-2.179c2.497,0,3.515,0.394,4.695,0.847c1.502,0.579,3.203,1.235,8.088,1.235c2.92,0,4.857-0.305,5.929-0.931
	c1.071-0.625,1.071-1.446,1.069-1.862c0-0.541-0.141-0.979-0.272-1.269c1.344-1.564,1.344-1.651,1.344-1.864
	C27.313,19.68,27.313,19.412,26.372,18.265 M25.292,18.627c0.333,0.39,0.711,0.88,0.885,1.151c-0.247,0.317-0.782,0.957-1.251,1.5
	l-0.272,0.315l0.243,0.341c0.002,0.003,0.284,0.423,0.284,1.049c0,0.313,0,0.606-0.544,0.925c-0.613,0.358-2.046,0.784-5.393,0.784
	c-4.686,0-6.291-0.617-7.706-1.164c-1.225-0.472-2.382-0.917-5.077-0.917v-6.628c3,0,4.707-3.382,4.967-3.94
	c0.382-0.451,0.877-0.847,1.4-1.266c1.411-1.13,3.167-2.537,3.518-5.831c0.022-0.227,0.092-0.506,0.278-0.547
	c0.337-0.073,0.969,0.31,1.23,0.747c0.68,1.132-0.036,2.644-0.727,4.106l-0.178,0.375c-0.519,1.114-0.546,2.164-0.071,2.809
	c0.266,0.36,0.802,0.761,1.853,0.618c0.682-0.093,1.284-0.194,1.818-0.283c1.145-0.194,2.053-0.346,3.227-0.346
	c0.707,0,1.315,0.432,1.485,0.666c-0.542,0.476-1.084,1.083-0.854,1.693c0.188,0.503,0.755,0.602,1.022,0.618
	c0.199,0.09,0.789,0.415,0.816,1.095c-0.092,0.229-0.564,0.927-0.975,1.466l-0.26,0.341L25.292,18.627z"/>
</svg>
